<svg width="70" height="29" viewBox="0 0 70 29" fill="none" xmlns="http://www.w3.org/2000/svg">
<path d="M12.7903 3.71649C11.97 4.69008 10.6573 5.45825 9.34461 5.34841C9.18055 4.03202 9.82313 2.63307 10.5752 1.76905C11.3955 0.768036 12.8314 0.0548499 13.9936 0C14.1303 1.37138 13.5971 2.71534 12.7905 3.71649H12.7903ZM13.9799 5.60909C12.0793 5.49939 10.4522 6.69237 9.54969 6.69237C8.63368 6.69237 7.25254 5.66394 5.7485 5.69136C3.79329 5.71879 1.97466 6.8295 0.976472 8.59868C-1.07458 12.1369 0.443269 17.3758 2.42583 20.2557C3.39667 21.6819 4.55891 23.2453 6.0903 23.1904C7.53979 23.1356 8.11401 22.2442 9.86428 22.2442C11.6281 22.2442 12.1341 23.1904 13.6655 23.163C15.2515 23.1356 16.2497 21.7369 17.2206 20.3105C18.328 18.6923 18.7793 17.1151 18.8066 17.0328C18.7793 17.0054 15.7439 15.8398 15.7165 12.3289C15.6892 9.39414 18.1094 7.99533 18.2188 7.91306C16.8513 5.88334 14.7183 5.66394 13.9799 5.60909V5.60909ZM24.9598 1.63192V23.0123H28.2687V15.7027H32.8493C37.0333 15.7027 39.9732 12.8228 39.9732 8.65367C39.9732 4.48467 37.088 1.63206 32.9587 1.63206H24.9597L24.9598 1.63192ZM28.2687 4.42968H32.0835C34.955 4.42968 36.5958 5.96561 36.5958 8.66724C36.5958 11.3689 34.955 12.9187 32.0699 12.9187H28.2687V4.42968V4.42968ZM46.0168 23.1767C48.0952 23.1767 50.0231 22.1208 50.8982 20.4476H50.9666V23.0121H54.0295V12.37C54.0295 9.28444 51.5683 7.29586 47.7806 7.29586C44.2665 7.29586 41.6686 9.31187 41.5729 12.0821H44.5538C44.7999 10.7655 46.0167 9.9015 47.6849 9.9015C49.7086 9.9015 50.8435 10.8478 50.8435 12.5896V13.7688L46.7141 14.0157C42.8719 14.2488 40.7936 15.826 40.7936 18.5689C40.7936 21.3391 42.9402 23.1767 46.0168 23.1767ZM46.9055 20.6396C45.1418 20.6396 44.0204 19.7894 44.0204 18.4865C44.0204 17.1427 45.1007 16.3609 47.1654 16.2375L50.8435 16.0044V17.2111C50.8435 19.2134 49.1481 20.6396 46.9056 20.6396H46.9055ZM58.1178 28.8269C61.3448 28.8269 62.8625 27.5928 64.1888 23.8487L70 7.50155H66.6363L62.7394 20.1321H62.6711L58.7742 7.50155H55.3148L60.9208 23.067L60.62 24.0133C60.1141 25.6178 59.2937 26.235 57.8307 26.235C57.5709 26.235 57.065 26.2076 56.8598 26.1801V28.7446C57.0512 28.7995 57.8715 28.8269 58.1178 28.8269V28.8269Z" fill="black"/>
</svg>
