<svg width="210" height="158" viewBox="0 0 210 158" fill="none" xmlns="http://www.w3.org/2000/svg">
<rect width="210" height="158" fill="#C4C4C4"/>
<path d="M105 35C92.134 35 81.6667 45.5067 81.6667 58.4211C81.6667 71.3354 92.134 81.8421 105 81.8421C117.866 81.8421 128.333 71.3354 128.333 58.4211C128.333 45.5067 117.866 35 105 35ZM105 72.4737C97.2813 72.4737 91 66.1687 91 58.4211C91 50.6734 97.2813 44.3684 105 44.3684C112.719 44.3684 119 50.6734 119 58.4211C119 66.1687 112.719 72.4737 105 72.4737ZM147 124V119.316C147 101.239 132.342 86.5263 114.333 86.5263H95.6667C77.6533 86.5263 63 101.239 63 119.316V124H72.3333V119.316C72.3333 106.401 82.8007 95.8947 95.6667 95.8947H114.333C127.199 95.8947 137.667 106.401 137.667 119.316V124H147Z" fill="#646363"/>
</svg>
