<svg width="88" height="88" viewBox="0 0 88 88" fill="none" xmlns="http://www.w3.org/2000/svg">
<path d="M88.0001 66.6875C88.0001 56.5729 80.9517 48.1098 71.5001 45.9271C69.9524 45.5702 68.3437 45.3749 66.6875 45.3749C66.2248 45.3749 65.7677 45.3949 65.3126 45.4238C54.9842 46.0824 46.6593 54.0931 45.514 64.2813C45.4253 65.0713 45.3751 65.8735 45.3751 66.6875C45.3751 68.2206 45.5408 69.7146 45.8481 71.1562C47.9024 80.7806 56.45 88 66.6875 88C78.4582 88 88.0001 78.4582 88.0001 66.6875ZM66.6875 80.7813C58.9037 80.7813 52.5937 74.4713 52.5937 66.6875C52.5937 58.9036 58.9037 52.5937 66.6875 52.5937C74.4713 52.5937 80.7813 58.9036 80.7813 66.6875C80.7813 74.4713 74.4713 80.7813 66.6875 80.7813Z" fill="#0E3189"/>
<path d="M69.4374 57.0626H64.625V64.6251H57.0625V69.4375H69.4374V64.6251V57.0626Z" fill="#0E3189"/>
<path d="M15.8126 0C14.4857 0 13.4064 1.07944 13.4064 2.4062V7.9062V13.75C13.4064 15.0769 14.4857 16.1562 15.8126 16.1562H17.8751C19.202 16.1562 20.2813 15.0768 20.2813 13.75V7.9062V2.4062C20.2813 1.07944 19.202 0 17.875 0H15.8126Z" fill="#0E3189"/>
<path d="M53.6252 0C52.2983 0 51.219 1.07944 51.219 2.4062V7.9062V13.75C51.219 15.0769 52.2984 16.1562 53.6252 16.1562H55.6877C57.0146 16.1562 58.0939 15.0768 58.0939 13.75V7.9062V2.4062C58.0939 1.07944 57.0145 0 55.6876 0H53.6252Z" fill="#0E3189"/>
<path d="M5.5 71.1562H39.5313C39.1958 69.4882 39.0176 67.7647 39.0176 66C39.0176 65.4218 39.0431 64.8498 39.0802 64.2813H10.3125C8.03417 64.2813 6.18746 62.4346 6.18746 60.1562V27.1562H65.3125V39.9114C65.7676 39.888 66.2262 39.8751 66.6875 39.8751C68.332 39.8751 69.9386 40.0345 71.5 40.3267V13.4062C71.5 10.3688 69.0374 7.90619 66 7.90619H61.5313V13.75C61.5313 16.9723 58.91 19.5938 55.6875 19.5938H53.6249C50.4026 19.5938 47.7811 16.9723 47.7811 13.75V7.90619H23.7187V13.75C23.7187 16.9723 21.0973 19.5938 17.8749 19.5938H15.8124C12.59 19.5938 9.96859 16.9723 9.96859 13.75V7.90619H5.5C2.46256 7.90619 0 10.3689 0 13.4062V65.6562C0 68.6936 2.46256 71.1562 5.5 71.1562Z" fill="#0E3189"/>
<path d="M19.3793 42.9262C22.3934 42.9262 24.8368 40.4828 24.8368 37.4687C24.8368 34.4547 22.3934 32.0113 19.3793 32.0113C16.3653 32.0113 13.9219 34.4547 13.9219 37.4687C13.9219 40.4828 16.3653 42.9262 19.3793 42.9262Z" fill="#0E3189"/>
<path d="M35.75 42.9262C38.7641 42.9262 41.2075 40.4828 41.2075 37.4687C41.2075 34.4547 38.7641 32.0113 35.75 32.0113C32.736 32.0113 30.2926 34.4547 30.2926 37.4687C30.2926 40.4828 32.736 42.9262 35.75 42.9262Z" fill="#0E3189"/>
<path d="M52.1209 42.9262C55.135 42.9262 57.5784 40.4828 57.5784 37.4687C57.5784 34.4547 55.135 32.0113 52.1209 32.0113C49.1068 32.0113 46.6635 34.4547 46.6635 37.4687C46.6635 40.4828 49.1068 42.9262 52.1209 42.9262Z" fill="#0E3189"/>
<path d="M35.75 59.426C38.764 59.426 41.2073 56.9827 41.2073 53.9688C41.2073 50.9548 38.764 48.5115 35.75 48.5115C32.736 48.5115 30.2927 50.9548 30.2927 53.9688C30.2927 56.9827 32.736 59.426 35.75 59.426Z" fill="#0E3189"/>
<path d="M19.3793 59.426C22.3933 59.426 24.8366 56.9827 24.8366 53.9688C24.8366 50.9548 22.3933 48.5115 19.3793 48.5115C16.3653 48.5115 13.922 50.9548 13.922 53.9688C13.922 56.9827 16.3653 59.426 19.3793 59.426Z" fill="#0E3189"/>
</svg>
