<svg xmlns="http://www.w3.org/2000/svg" viewBox="0 0 200 200">
  <defs>
    <style>
      .a, .b {
        fill: none;
        stroke: #0e3189;
        stroke-linejoin: round;
        stroke-width: 10px;
      }

      .a {
        stroke-linecap: round;
      }
    </style>
  </defs>
  <title>45</title>
  <g>
    <path class="a" d="M144.08908,84.10373,93.33293,144.59257a18.60383,18.60383,0,0,1-26.20967,2.293l0,0a18.60383,18.60383,0,0,1-2.29305-26.20966L99.27325,79.62827"/>
    <path class="a" d="M145.0268,115.3692l-42.7793,50.9823a33.41343,33.41343,0,0,1-47.07391,4.11839l-3.46619-2.90848A33.41343,33.41343,0,0,1,47.589,120.4875l69.13782-82.3951"/>
    <path class="b" d="M65.51329,99.04739l56.2348-67.018a25.27657,25.27657,0,0,1,35.61044-3.11551l0,0a25.27659,25.27659,0,0,1,3.11551,35.61045l-59.22917,70.58657"/>
  </g>
</svg>
