<svg width="20" height="24" viewBox="0 0 20 24" fill="none" xmlns="http://www.w3.org/2000/svg">
<path d="M20 4.5H18.5V21.75C18.5 22.0625 18.4414 22.3555 18.3242 22.6289C18.207 22.9023 18.0469 23.1406 17.8438 23.3438C17.6406 23.5469 17.4023 23.707 17.1289 23.8242C16.8555 23.9414 16.5625 24 16.25 24H4.25C3.9375 24 3.64453 23.9414 3.37109 23.8242C3.09766 23.707 2.85938 23.5469 2.65625 23.3438C2.45312 23.1406 2.29297 22.9023 2.17578 22.6289C2.05859 22.3555 2 22.0625 2 21.75V4.5H0.5V3H6.5V1.5C6.5 1.28906 6.53906 1.09375 6.61719 0.914062C6.69531 0.734375 6.80078 0.578125 6.93359 0.445312C7.07422 0.304688 7.23438 0.195313 7.41406 0.117188C7.59375 0.0390625 7.78906 0 8 0H12.5C12.7109 0 12.9062 0.0390625 13.0859 0.117188C13.2656 0.195313 13.4219 0.304688 13.5547 0.445312C13.6953 0.578125 13.8047 0.734375 13.8828 0.914062C13.9609 1.09375 14 1.28906 14 1.5V3H20V4.5ZM8 3H12.5V1.5H8V3ZM17 4.5H3.5V21.75C3.5 21.9531 3.57422 22.1289 3.72266 22.2773C3.87109 22.4258 4.04688 22.5 4.25 22.5H16.25C16.4531 22.5 16.6289 22.4258 16.7773 22.2773C16.9258 22.1289 17 21.9531 17 21.75V4.5ZM8 19.5H6.5V7.5H8V19.5ZM11 19.5H9.5V7.5H11V19.5ZM14 19.5H12.5V7.5H14V19.5Z" fill="black"/>
</svg>
