<svg width="23" height="19" viewBox="0 0 23 19" fill="none" xmlns="http://www.w3.org/2000/svg">
<path d="M10 2.72467H3C2.46957 2.72467 1.96086 2.89598 1.58579 3.20093C1.21071 3.50587 1 3.91946 1 4.35071V15.733C1 16.1642 1.21071 16.5778 1.58579 16.8828C1.96086 17.1877 2.46957 17.359 3 17.359H17C17.5304 17.359 18.0391 17.1877 18.4142 16.8828C18.7893 16.5778 19 16.1642 19 15.733V10.0418" stroke="#191970" stroke-width="2" stroke-linecap="round" stroke-linejoin="round"/>
<path d="M17.5 1.50514C17.8978 1.18171 18.4374 1 19 1C19.5626 1 20.1022 1.18171 20.5 1.50514C20.8978 1.82858 21.1213 2.26726 21.1213 2.72467C21.1213 3.18208 20.8978 3.62075 20.5 3.94419L11 11.6678L7 12.4809L8 9.2288L17.5 1.50514Z" stroke="#191970" stroke-width="2" stroke-linecap="round" stroke-linejoin="round"/>
</svg>
