<svg xmlns="http://www.w3.org/2000/svg" viewBox="0 0 200 200">
  <defs>
    <style>
      .a {
        fill: none;
        stroke-linejoin: round;
        stroke-width: 10px;
      }

      .a, .b {
        stroke: #0e3189;
      }

      .b {
        fill: #0e3189;
        stroke-miterlimit: 10;
      }
    </style>
  </defs>
  <title>45</title>
  <g>
    <path class="a" d="M122.90378,98.10712c6.1467,5.02524,14.74539,4.77063,19.10819-.56581l29.12647-35.62648c4.36281-5.33643,2.90326-13.81417-3.24344-18.83941L150.2,28.60882c-6.1467-5.02525-14.74539-4.77064-19.10819.5658L101.96529,64.8011c-4.36281,5.33643-2.90326,13.81417,3.24344,18.83941"/>
    <rect class="b" x="101.17398" y="43.68848" width="10.95251" height="109.38858" rx="5.47625" transform="translate(86.3529 -45.28859) rotate(39.26776)"/>
    <path class="a" d="M90.19042,102.11379c-6.084-5.10092-14.68522-4.95274-19.11374.3293L41.51157,137.7064c-4.42851,5.282-3.074,13.77718,3.01006,18.8781L62.03629,171.269c6.084,5.10092,14.68522,4.95274,19.11373-.32929l29.56512-35.26332c4.42851-5.282,3.074-13.77718-3.01006-18.8781"/>
  </g>
</svg>
