<svg width="105" height="29" viewBox="0 0 105 29" fill="none" xmlns="http://www.w3.org/2000/svg">
<rect width="105" height="29" fill="#191970"/>
<path d="M27.4678 15.1035V19H26.1553V9.04688H29.8262C30.9154 9.04688 31.7676 9.32487 32.3828 9.88086C33.0026 10.4368 33.3125 11.1729 33.3125 12.0889C33.3125 13.055 33.0094 13.8001 32.4033 14.3242C31.8018 14.8438 30.9382 15.1035 29.8125 15.1035H27.4678ZM27.4678 14.0303H29.8262C30.528 14.0303 31.0658 13.8662 31.4395 13.5381C31.8132 13.2054 32 12.7269 32 12.1025C32 11.5101 31.8132 11.0361 31.4395 10.6807C31.0658 10.3252 30.5531 10.1406 29.9014 10.127H27.4678V14.0303ZM39.2734 19C39.2005 18.8542 39.1413 18.5944 39.0957 18.2207C38.5078 18.8314 37.806 19.1367 36.9902 19.1367C36.2611 19.1367 35.6618 18.9316 35.1924 18.5215C34.7275 18.1068 34.4951 17.5827 34.4951 16.9492C34.4951 16.179 34.7868 15.582 35.3701 15.1582C35.958 14.7298 36.7829 14.5156 37.8447 14.5156H39.0752V13.9346C39.0752 13.4925 38.943 13.1416 38.6787 12.8818C38.4144 12.6175 38.0247 12.4854 37.5098 12.4854C37.0586 12.4854 36.6803 12.5993 36.375 12.8271C36.0697 13.055 35.917 13.3307 35.917 13.6543H34.6455C34.6455 13.2852 34.7754 12.9297 35.0352 12.5879C35.2995 12.2415 35.6549 11.9681 36.1016 11.7676C36.5527 11.5671 37.0472 11.4668 37.585 11.4668C38.4372 11.4668 39.1048 11.681 39.5879 12.1094C40.071 12.5332 40.3216 13.1188 40.3398 13.8662V17.2705C40.3398 17.9495 40.4264 18.4896 40.5996 18.8906V19H39.2734ZM37.1748 18.0361C37.5713 18.0361 37.9473 17.9336 38.3027 17.7285C38.6582 17.5234 38.9157 17.2568 39.0752 16.9287V15.4111H38.084C36.5345 15.4111 35.7598 15.8646 35.7598 16.7715C35.7598 17.168 35.8919 17.4779 36.1562 17.7012C36.4206 17.9245 36.7601 18.0361 37.1748 18.0361ZM44.6328 17.1475L46.3555 11.6035H47.709L44.7354 20.1416C44.2751 21.3721 43.5436 21.9873 42.541 21.9873L42.3018 21.9668L41.8301 21.8779V20.8525L42.1719 20.8799C42.6003 20.8799 42.9329 20.7933 43.1699 20.6201C43.4115 20.4469 43.6097 20.1302 43.7646 19.6699L44.0449 18.918L41.4062 11.6035H42.7871L44.6328 17.1475ZM60.1641 19H58.8447L53.834 11.3301V19H52.5146V9.04688H53.834L58.8584 16.751V9.04688H60.1641V19ZM61.9619 15.2334C61.9619 14.5088 62.1032 13.8571 62.3857 13.2783C62.6729 12.6995 63.0693 12.2529 63.5752 11.9385C64.0856 11.624 64.6667 11.4668 65.3184 11.4668C66.3255 11.4668 67.139 11.8154 67.7588 12.5127C68.3831 13.21 68.6953 14.1374 68.6953 15.2949V15.3838C68.6953 16.1038 68.5563 16.751 68.2783 17.3252C68.0049 17.8949 67.6107 18.3392 67.0957 18.6582C66.5853 18.9772 65.9974 19.1367 65.332 19.1367C64.3294 19.1367 63.516 18.7881 62.8916 18.0908C62.2718 17.3936 61.9619 16.4707 61.9619 15.3223V15.2334ZM63.2334 15.3838C63.2334 16.2041 63.4225 16.8626 63.8008 17.3594C64.1836 17.8561 64.694 18.1045 65.332 18.1045C65.9746 18.1045 66.485 17.8538 66.8633 17.3525C67.2415 16.8467 67.4307 16.1403 67.4307 15.2334C67.4307 14.4222 67.237 13.766 66.8496 13.2646C66.4668 12.7588 65.9564 12.5059 65.3184 12.5059C64.694 12.5059 64.1904 12.7542 63.8076 13.251C63.4248 13.7477 63.2334 14.4587 63.2334 15.3838ZM76.8301 17.2568L78.252 11.6035H79.5166L77.3633 19H76.3379L74.54 13.3945L72.79 19H71.7646L69.6182 11.6035H70.876L72.332 17.1406L74.0547 11.6035H75.0732L76.8301 17.2568Z" fill="white"/>
</svg>
