<svg xmlns="http://www.w3.org/2000/svg" viewBox="0 0 221.59183 57.2766">
  <defs>
    <style>
      .a {
        fill: #009edf;
      }

      .b {
        fill: #073190;
      }

      .c {
        fill: #009ad8;
      }

      .d {
        fill: #003085;
      }

      .e {
        opacity: 0.15;
      }

      .f {
        fill: #002169;
      }
    </style>
  </defs>
  <title>paypal</title>
  <g>
    <path class="a" d="M198.55722,68.14694a.83.83,0,0,1,.81908-.69577h7.2969q15.95109,0,14.29272,13.12319a1.0488,1.0488,0,0,1-.05.21173,11.23588,11.23588,0,0,1-4.86385,6.37162,12.373,12.373,0,0,1-4.541,1.56543,74.42691,74.42691,0,0,1-7.677.35611.839.839,0,0,0-.81827.69267l-1.83038,10.96492a.83.83,0,0,1-.81867.69334H194.08a.83.83,0,0,1-.81907-.96423Zm7.06509,5.99646-1.36672,7.88932a.83.83,0,0,0,.81782.97167h1.15447a7.51924,7.51924,0,0,0,4.7666-1.49707,4.50087,4.50087,0,0,0,1.9209-3.665,3.85173,3.85173,0,0,0-1.58789-3.12256,6.07947,6.07947,0,0,0-3.91015-1.26465h-.97721A.83.83,0,0,0,205.62231,74.1434Z" transform="translate(-40.40978 -52.34043)"/>
    <path class="a" d="M240.32234,80.41034l.12143-.74613a.83.83,0,0,1,.81922-.69668h5.42506a.83.83,0,0,1,.81889.96537l-3.34473,20.23355a.83.83,0,0,1-.81889.69463h-5.3715a.83.83,0,0,1-.8192-.96348l.2141-1.31386a12.56921,12.56921,0,0,1-7.53906,2.69141,8.9066,8.9066,0,0,1-6.74024-2.82129,9.94844,9.94844,0,0,1-2.68262-7.14258,13.04708,13.04708,0,0,1,3.374-9.083,10.636,10.636,0,0,1,8.18164-3.72656,11.91815,11.91815,0,0,1,7.06329,2.44456A.8256.8256,0,0,0,240.32234,80.41034Zm-12.73687,10.3316a4.86009,4.86009,0,0,0,1.3291,3.57129q1.91786,1.9411,5.75741,1.08317a1.00684,1.00684,0,0,0,.25693-.09634,6.75755,6.75755,0,0,0,3.75887-7.69129,1.17121,1.17121,0,0,0-.11143-.312,5.58627,5.58627,0,0,0-5.0944-3.12807,5.43293,5.43293,0,0,0-4.21972,1.86328A6.77476,6.77476,0,0,0,227.58547,90.74194Z" transform="translate(-40.40978 -52.34043)"/>
    <path class="b" d="M165.55015,78.5271H171.074a.83.83,0,0,1,.76811.51551L175.76,88.61175a.83.83,0,0,0,1.4328.1826L184.62221,78.86a.83.83,0,0,1,.66469-.33291h6.15092a.83.83,0,0,1,.66278,1.32961L169.916,109.28664a.83.83,0,0,1-.66278.33038h-5.97342a.83.83,0,0,1-.66474-1.327L171.2132,96.7902a.83.83,0,0,0,.1057-.80575l-6.5392-16.31862A.83.83,0,0,1,165.55015,78.5271Z" transform="translate(-40.40978 -52.34043)"/>
    <path class="a" d="M255.82991,67.45117h5.34147a.83.83,0,0,1,.81716.97541L256.23315,100.771a.83.83,0,0,1-.81717.6846h-5.3972a.83.83,0,0,1-.81692-.97677L255.013,68.1344A.83.83,0,0,1,255.82991,67.45117Z" transform="translate(-40.40978 -52.34043)"/>
    <path class="b" d="M153.82524,80.43574l.12142-.74614a.83.83,0,0,1,.81923-.69668h5.42506a.83.83,0,0,1,.81889.96537l-3.34474,20.23355a.83.83,0,0,1-.81888.69463h-5.3715a.83.83,0,0,1-.8192-.96348l.21409-1.31386a12.56919,12.56919,0,0,1-7.53906,2.69141,8.90659,8.90659,0,0,1-6.74023-2.82129,9.94838,9.94838,0,0,1-2.68262-7.14258,13.04712,13.04712,0,0,1,3.374-9.083,10.636,10.636,0,0,1,8.18164-3.72656,11.918,11.918,0,0,1,7.06329,2.44457A.82561.82561,0,0,0,153.82524,80.43574ZM141.08836,90.76733a4.86009,4.86009,0,0,0,1.3291,3.57129q1.91786,1.94109,5.75752,1.08312a1.00724,1.00724,0,0,0,.25693-.09635,6.75754,6.75754,0,0,0,3.7588-7.69107,1.17133,1.17133,0,0,0-.11143-.312,5.5862,5.5862,0,0,0-5.09443-3.12823,5.433,5.433,0,0,0-4.21973,1.86328A6.77481,6.77481,0,0,0,141.08836,90.76733Z" transform="translate(-40.40978 -52.34043)"/>
    <path class="b" d="M110.88924,68.1458a.82864.82864,0,0,1,.81773-.69463H119.005q13.50477,0,14.38762,9.40673a11.12671,11.12671,0,0,1-1.85748,7.366,9.63956,9.63956,0,0,1-3.15124,2.93379,12.373,12.373,0,0,1-4.541,1.56543,78.62267,78.62267,0,0,1-8.18253.36147.22876.22876,0,0,0-.229.18583c-.21658,1.29732-1.51645,9.08424-1.91425,11.46726a.82909.82909,0,0,1-.81853.69248h-6.28153a.83446.83446,0,0,1-.82347-.96941Zm7.0649,5.9976-1.36672,7.88932a.83.83,0,0,0,.81782.97167h1.15448a7.51924,7.51924,0,0,0,4.7666-1.49707,4.5009,4.5009,0,0,0,1.9209-3.665,3.85176,3.85176,0,0,0-1.58789-3.12256,6.0795,6.0795,0,0,0-3.91016-1.26465H118.772A.83.83,0,0,0,117.95414,74.1434Z" transform="translate(-40.40978 -52.34043)"/>
    <path class="c" d="M57.02551,66.5862a1.39325,1.39325,0,0,1,1.318-1.22648l9.158-.26522q18.61872-.54045,18.983,13.17748a13.40194,13.40194,0,0,1-6.23082,11.58208,16.1178,16.1178,0,0,1-5.7985,2.16433,95.03606,95.03606,0,0,1-9.647.73056,1.39768,1.39768,0,0,0-1.30646,1.22136l-1.904,13.4407a1.393,1.393,0,0,1-1.31725,1.22195l-7.48938.21753a1.4104,1.4104,0,0,1-1.394-1.6371Z" transform="translate(-40.40978 -52.34043)"/>
    <path class="d" d="M46.96831,54.05826A1.605,1.605,0,0,1,48.50016,52.665L59.144,52.3637q21.63966-.61393,22.06307,14.96951a14.34911,14.34911,0,0,1-1.94464,7.66506,14.68592,14.68592,0,0,1-5.29716,5.49208A19.00367,19.00367,0,0,1,67.226,82.949q-3.23671.50778-11.21232.82991a1.60989,1.60989,0,0,0-1.51844,1.38746l-2.213,15.26852a1.60483,1.60483,0,0,1-1.531,1.38812l-8.70456.24712a1.6146,1.6146,0,0,1-1.62016-1.85974Z" transform="translate(-40.40978 -52.34043)"/>
    <g class="e">
      <path class="c" d="M57.02551,66.5862a1.39325,1.39325,0,0,1,1.318-1.22648l9.158-.26522q18.61872-.54045,18.983,13.17748a13.40194,13.40194,0,0,1-6.23082,11.58208,16.1178,16.1178,0,0,1-5.7985,2.16433,95.03606,95.03606,0,0,1-9.647.73056,1.39768,1.39768,0,0,0-1.30646,1.22136l-1.904,13.4407a1.393,1.393,0,0,1-1.31725,1.22195l-7.48938.21753a1.4104,1.4104,0,0,1-1.394-1.6371Z" transform="translate(-40.40978 -52.34043)"/>
    </g>
    <path class="f" d="M54.50433,85.0461a1.6099,1.6099,0,0,1,1.51843-1.38746q7.97526-.32171,11.21234-.82989a19.0039,19.0039,0,0,0,6.73932-2.45868A14.68662,14.68662,0,0,0,79.2716,74.878a14.33631,14.33631,0,0,0,1.94117-7.09539c-3.15589-2.0387-7.71369-2.98224-13.70215-2.80841l-9.158.26526a1.39325,1.39325,0,0,0-1.318,1.22644" transform="translate(-40.40978 -52.34043)"/>
  </g>
</svg>
